<?xml version="1.0" encoding="utf-8"?>
<!-- Generator: Adobe Illustrator 18.1.0, SVG Export Plug-In . SVG Version: 6.00 Build 0)  -->
<svg version="1.1" id="Layer_1" xmlns="http://www.w3.org/2000/svg" xmlns:xlink="http://www.w3.org/1999/xlink" x="0px" y="0px"
	 viewBox="0 0 1500 1500" enable-background="new 0 0 1500 1500" xml:space="preserve">
<g>
	<polygon fill="#006380" points="758,1039 718,1005 671,1029 638,988 587,1003 562,956 509,962 501,937 408,1374 604,1191 709,1438 
		787,1073 777,1025 	"/>
	<polygon fill="#BFB384" points="1031,929 1011,978 959,969 931,1014 881,995 846,1034 800,1008 777,1025 787,1073 867,1442 
		972,1195 1168,1378 1071,929 	"/>
	<path fill="#006380" d="M1218,584l32-40l-33-39l24-45l-40-33l16-49l-45-25l7-51l-49-17l-3-51l-51-8l-12-50l-51,1l-20-47l-50,10
		l-29-43l-48,19l-36-37l-44,27l-42-30l-36,34l-46-22l-31,41l-50-13l-23,46l-51-4l-15,49l-52,3l-6,51l-50,14l3,51l-46,23l13,50
		l-41,30l21,47l-35,37l29,42l-28,44l36,36l-20,47l42,29l-11,50l47,21l-2,51l50,13l7,51l51,3l8,24l8,25l51-6l25,45l49-15l32,40l46-23
		l39,34l18-14l23-17l44,26l35-38l48,18l27-44l51,9l19-48h39h13l10-50l51-9l1-51l48-18l-8-51l44-27l-17-49l39-34L1218,584z M1009,273
		l11-35l11,35h37l-30,22l12,35l-30-22l-30,22l11-35l-30-22H1009z M769,173l11-35l11,35h39l-30,22l11,35l-30-22l-30,22l11-35l-30-22
		H769z M514,269l11-35l11,35h37l-30,22l11,35l-30-22l-30,22l11-35l-30-22L514,269L514,269z M434,569l-30-22l-30,22l11-35l-30-22h37
		l11-35l12,35h37l-30,22L434,569z M528,821l-30-22l-30,22l11-35l-30-22h37l11-35l11,35h37l-30,22L528,821z M811,960l-30-22l-30,22
		l11-35l-30-22h37l11-35l11,35h39l-30,22L811,960z M771,839c-158,0-285-128-285-285c0-158,128-285,285-285c158,0,285,128,285,285
		S929,839,771,839z M1067,798l11,35l-30-22l-30,22l11-35l-30-22h37l11-35l11,35h37L1067,798z M1149,534l12,35l-30-22l-30,22l11-35
		l-30-22h37l11-35l12,35h37L1149,534z"/>
	<path fill="#BFB384" d="M681,518c-17-30-48-45-70-33c-21,12-25,46-8,77c17,30,48,45,70,33C694,583,698,549,681,518z"/>
	<path fill="#BFB384" d="M740,511c21-12,25-46,8-77c-17-30-48-45-70-33c-21,12-25,47-8,77C687,509,718,524,740,511z"/>
	<path fill="#BFB384" d="M849,605c1-4,1-8,1-12c-1-34-38-69-73-68c-34,1-69,38-68,73c0,4,1,8,1,11c-22,2-31,29-30,51
		c1,24,20,42,44,41c21-1,53-16,58-18c26,12,38,14,59,14c23-1,42-20,41-44C880,632,870,607,849,605z"/>
	<path fill="#BFB384" d="M929,475c-22-11-52,6-67,38c-15,31-9,65,13,76c22,11,52-6,67-37C957,520,952,486,929,475z"/>
	<path fill="#BFB384" d="M803,509c22,11,52-6,67-38c15-31,9-65-13-76c-22-11-52,6-67,38S781,499,803,509z"/>
</g>
</svg>
