<?xml version="1.0" encoding="utf-8"?>
<!-- Generator: Adobe Illustrator 18.1.0, SVG Export Plug-In . SVG Version: 6.00 Build 0)  -->
<svg version="1.1" id="Layer_1" xmlns="http://www.w3.org/2000/svg" xmlns:xlink="http://www.w3.org/1999/xlink" x="0px" y="0px"
	 viewBox="0 0 1500 1500" enable-background="new 0 0 1500 1500" xml:space="preserve">
<g>
	<path fill="#540B2C" d="M1265,977c55-81,86-175,86-274c-1-306-292-553-653-553C338,150,46,398,46,703s292,553,652,553
		c89,0,174-15,251-43c115-16,140,102,504,137C1453,1350,1228,1151,1265,977z M766,396c18-87,78-148,135-136c56,12,88,91,70,178
		c-18,87-78,148-135,136C780,562,748,482,766,396z M567,260c56-12,117,49,135,136c18,87-13,166-70,178c-57,12-117-49-135-136
		S511,271,567,260z M314,658c-32-81-15-164,38-185s124,27,156,108s15,164-38,185C416,787,347,739,314,658z M988,989
		c-75,119-192,29-254,29c-62,0-179,90-254-29c-74-118,110-346,254-346C877,643,1062,871,988,989z M1153,658c-32,81-102,129-155,108
		c-54-21-71-104-38-185c32-81,102-129,155-108C1168,494,1186,577,1153,658z"/>
</g>
</svg>
